<svg width="651" height="206" viewBox="0 0 651 206" fill="none" xmlns="http://www.w3.org/2000/svg">
<path d="M87.0727 0.553848C56.9289 5.17386 32.3542 17.3014 16.6193 35.5889C9.54744 43.7701 5.56952 50.7001 2.47559 60.4214C-0.883546 70.7201 -0.795148 84.5801 2.56398 95.3601C3.88996 99.5951 6.45351 105.659 8.22147 108.835C12.1994 115.958 22.8956 127.893 30.0558 133.09C43.3156 142.811 62.2328 150.8 79.382 153.976C83.1832 154.746 83.4483 155.998 80.9732 161.965C78.7632 167.163 73.1942 173.13 67.8019 176.114C62.3212 179.194 60.9952 181.889 63.7355 184.776C64.7079 185.931 66.9179 186.316 72.045 186.316C99.9788 186.316 124.907 174.478 135.868 156.094C139.67 149.645 140.023 147.528 137.371 145.603C134.808 143.581 132.333 144.64 130.388 148.683C125.614 158.789 115.095 167.451 101.747 172.36C97.5921 173.804 85.2163 176.691 82.918 176.691C82.2992 176.691 83.4483 174.189 85.3047 171.205C87.2495 168.221 89.4594 163.601 90.1666 160.906C91.6694 155.516 91.9346 148.201 90.697 147.431C90.255 147.046 86.3655 146.18 82.034 145.41C70.1002 143.1 59.2272 139.443 49.415 134.438C29.5254 124.139 18.0337 112.3 11.0502 94.8789C9.10545 90.2589 8.84026 88.1414 8.84026 78.0351C8.84026 64.2714 10.2546 59.4589 17.5033 48.4864C28.2879 32.1239 47.2051 19.7076 71.5146 13.0663C118.277 0.168854 172.289 15.8576 193.769 48.4864C200.222 58.3039 202.167 64.3676 202.698 76.1101C202.963 84.1951 202.698 86.6976 201.106 91.9914C197.482 103.926 190.852 113.551 179.802 122.791C172.642 128.855 171.581 130.876 174.233 133.764C176.443 136.17 178.123 135.593 184.399 130.491C196.333 120.77 205.173 107.873 209.239 94.3976C212.156 84.5801 211.979 70.2389 208.797 60.4214C199.869 32.7014 172.907 11.2376 136.487 2.9601C127.559 0.938858 122.52 0.361359 109.172 0.0726166C100.156 -0.119888 90.255 0.0726013 87.0727 0.553848Z" fill="white"/>
<path d="M199.428 32.4987C201.903 35.2899 204.555 38.7549 205.351 40.1987C206.146 41.6424 207.295 43.0862 207.914 43.2787C210.655 44.4337 221.97 53.1924 226.389 57.5237C232.666 63.8762 239.561 75.1375 241.771 82.9337C243.716 89.96 244.069 101.125 242.566 108.247C241.417 114.022 237.086 123.166 232.666 129.422C221.262 145.592 195.98 159.741 169.903 164.65C165.572 165.42 161.682 166.286 161.24 166.671C160.002 167.441 160.268 174.371 161.77 180.05C162.566 182.841 164.688 187.557 166.632 190.541C169.019 194.295 169.726 195.931 168.842 195.931C165.395 195.931 149.66 191.6 144.975 189.386C139.052 186.595 130.831 180.82 128.267 177.74L126.588 175.719L123.229 177.836C121.284 178.991 119.781 180.242 119.781 180.627C119.781 181.012 122.08 183.611 124.908 186.306C131.008 192.274 143.384 199.107 152.577 201.61C167.339 205.652 185.55 206.904 188.201 204.016C190.765 201.225 189.616 198.434 184.842 195.739C178.831 192.466 173.969 187.557 171.583 182.264C168.4 175.334 168.577 173.986 172.643 173.216C189.704 170.04 208.71 161.955 221.881 152.33C224.798 150.212 230.014 145.4 233.461 141.646C253.528 119.894 257.594 91.7887 244.246 67.1487C236.997 53.8662 220.202 38.9474 203.671 31.2474C199.34 29.1299 195.627 27.4937 195.362 27.4937C195.185 27.4937 196.953 29.8037 199.428 32.4987Z" fill="white"/>
<path d="M81.2432 34.5102L78.6797 36.9165V78.4965V120.077L81.2432 122.483C83.2764 124.312 84.514 124.793 86.7239 124.408C90.2599 123.734 149.575 86.9665 152.315 83.694C154.791 80.614 154.791 76.379 152.315 73.299C149.575 70.0265 90.3483 33.259 86.7239 32.5852C84.514 32.2002 83.2764 32.6815 81.2432 34.5102Z" fill="white"/>
<path d="M332.875 95.15C335.825 95.7 338.25 97.175 340.15 99.575C342.05 101.975 343 104.725 343 107.825C343 110.625 342.3 113.1 340.9 115.25C339.55 117.35 337.575 119 334.975 120.2C332.375 121.4 329.3 122 325.75 122H303.175V69.65H324.775C328.325 69.65 331.375 70.225 333.925 71.375C336.525 72.525 338.475 74.125 339.775 76.175C341.125 78.225 341.8 80.55 341.8 83.15C341.8 86.2 340.975 88.75 339.325 90.8C337.725 92.85 335.575 94.3 332.875 95.15ZM313.675 91.25H323.275C325.775 91.25 327.7 90.7 329.05 89.6C330.4 88.45 331.075 86.825 331.075 84.725C331.075 82.625 330.4 81 329.05 79.85C327.7 78.7 325.775 78.125 323.275 78.125H313.675V91.25ZM324.25 113.45C326.8 113.45 328.775 112.85 330.175 111.65C331.625 110.45 332.35 108.75 332.35 106.55C332.35 104.3 331.6 102.55 330.1 101.3C328.6 100 326.575 99.35 324.025 99.35H313.675V113.45H324.25ZM361.868 66.5V122H351.368V66.5H361.868ZM369.542 101.075C369.542 96.875 370.367 93.15 372.017 89.9C373.717 86.65 375.992 84.15 378.842 82.4C381.742 80.65 384.967 79.775 388.517 79.775C391.617 79.775 394.317 80.4 396.617 81.65C398.967 82.9 400.842 84.475 402.242 86.375V80.45H412.817V122H402.242V115.925C400.892 117.875 399.017 119.5 396.617 120.8C394.267 122.05 391.542 122.675 388.442 122.675C384.942 122.675 381.742 121.775 378.842 119.975C375.992 118.175 373.717 115.65 372.017 112.4C370.367 109.1 369.542 105.325 369.542 101.075ZM402.242 101.225C402.242 98.675 401.742 96.5 400.742 94.7C399.742 92.85 398.392 91.45 396.692 90.5C394.992 89.5 393.167 89 391.217 89C389.267 89 387.467 89.475 385.817 90.425C384.167 91.375 382.817 92.775 381.767 94.625C380.767 96.425 380.267 98.575 380.267 101.075C380.267 103.575 380.767 105.775 381.767 107.675C382.817 109.525 384.167 110.95 385.817 111.95C387.517 112.95 389.317 113.45 391.217 113.45C393.167 113.45 394.992 112.975 396.692 112.025C398.392 111.025 399.742 109.625 400.742 107.825C401.742 105.975 402.242 103.775 402.242 101.225ZM400.817 69.65L383.567 77.525V70.025L400.817 61.1V69.65ZM474.672 79.85C479.772 79.85 483.872 81.425 486.972 84.575C490.122 87.675 491.697 92.025 491.697 97.625V122H481.197V99.05C481.197 95.8 480.372 93.325 478.722 91.625C477.072 89.875 474.822 89 471.972 89C469.122 89 466.847 89.875 465.147 91.625C463.497 93.325 462.672 95.8 462.672 99.05V122H452.172V99.05C452.172 95.8 451.347 93.325 449.697 91.625C448.047 89.875 445.797 89 442.947 89C440.047 89 437.747 89.875 436.047 91.625C434.397 93.325 433.572 95.8 433.572 99.05V122H423.072V80.45H433.572V85.475C434.922 83.725 436.647 82.35 438.747 81.35C440.897 80.35 443.247 79.85 445.797 79.85C449.047 79.85 451.947 80.55 454.497 81.95C457.047 83.3 459.022 85.25 460.422 87.8C461.772 85.4 463.722 83.475 466.272 82.025C468.872 80.575 471.672 79.85 474.672 79.85ZM520.111 122.675C516.111 122.675 512.511 121.8 509.311 120.05C506.111 118.25 503.586 115.725 501.736 112.475C499.936 109.225 499.036 105.475 499.036 101.225C499.036 96.975 499.961 93.225 501.811 89.975C503.711 86.725 506.286 84.225 509.536 82.475C512.786 80.675 516.411 79.775 520.411 79.775C524.411 79.775 528.036 80.675 531.286 82.475C534.536 84.225 537.086 86.725 538.936 89.975C540.836 93.225 541.786 96.975 541.786 101.225C541.786 105.475 540.811 109.225 538.861 112.475C536.961 115.725 534.361 118.25 531.061 120.05C527.811 121.8 524.161 122.675 520.111 122.675ZM520.111 113.525C522.011 113.525 523.786 113.075 525.436 112.175C527.136 111.225 528.486 109.825 529.486 107.975C530.486 106.125 530.986 103.875 530.986 101.225C530.986 97.275 529.936 94.25 527.836 92.15C525.786 90 523.261 88.925 520.261 88.925C517.261 88.925 514.736 90 512.686 92.15C510.686 94.25 509.686 97.275 509.686 101.225C509.686 105.175 510.661 108.225 512.611 110.375C514.611 112.475 517.111 113.525 520.111 113.525ZM566.813 112.325L577.313 80.45H588.488L573.113 122H560.363L545.063 80.45H556.313L566.813 112.325ZM599.711 75.5C597.861 75.5 596.311 74.925 595.061 73.775C593.861 72.575 593.261 71.1 593.261 69.35C593.261 67.6 593.861 66.15 595.061 65C596.311 63.8 597.861 63.2 599.711 63.2C601.561 63.2 603.086 63.8 604.286 65C605.536 66.15 606.161 67.6 606.161 69.35C606.161 71.1 605.536 72.575 604.286 73.775C603.086 74.925 601.561 75.5 599.711 75.5ZM604.886 80.45V122H594.386V80.45H604.886Z" fill="white"/>
</svg>
